<svg width="512" height="512" version="1.1" viewBox="0 0 512 512" xmlns="http://www.w3.org/2000/svg" xmlns:osb="http://www.openswatchbook.org/uri/2009/osb" xmlns:xlink="http://www.w3.org/1999/xlink">
 <path d="m224 16-16 80-32 16-64-48-48 48 48 64-16 32-80 16v64l80 16 16 32-48 64 48 48 64-48 32 16 16 80h64l16-80 32-16 64 48 48-48-48-64 16-32 80-16v-64l-80-16-16-32 48-64-48-48-64 48-32-16-16-80h-64zm0 160h64l48 48v64l-48 48h-64l-48-48v-64l48-48z" fill="#eee" stroke="#222" stroke-linecap="round" stroke-linejoin="round" stroke-width="4"/>
</svg>
